# Blender v2.70 (sub 0) OBJ File: 'cube.blend'
# www.blender.org
mtllib test.mtl
o Cube
v 1.000000 -1.000000 -1.000000
v 1.000000 -1.000000 1.000000
v -1.000000 -1.000000 1.000000
v -1.000000 -1.000000 -1.000000
v 1.000000 1.000000 -0.999999
v 0.999999 1.000000 1.000001
v -1.000000 1.000000 1.000000
v -1.000000 1.000000 -1.000000
vt 0.333333 0.666667
vt 0.333333 1.000000
vt 0.000000 1.000000
vt 0.666667 0.333333
vt 0.666667 0.666667
vt 0.333333 0.333333
vt 0.333333 0.000000
vt 0.666667 0.000000
vt 0.000000 0.333333
vt 0.000000 0.000000
vt 1.000000 0.000000
vt 0.000000 0.666667
vt 1.000000 0.333333
vn 0.000000 -1.000000 0.000000
vn 0.000000 1.000000 -0.000000
vn 1.000000 0.000000 0.000001
vn -0.000000 -0.000000 1.000000
vn -1.000000 -0.000000 -0.000000
vn 0.000000 0.000000 -1.000000
vn 1.000000 -0.000000 0.000000
usemtl Material
s off
f 2/1/1 3/2/1 4/3/1
f 5/4/2 8/5/2 7/1/2
f 5/6/3 6/7/3 2/8/3
f 2/9/4 6/10/4 7/7/4
f 7/4/5 8/8/5 4/11/5
f 1/6/6 4/1/6 8/12/6
f 1/12/1 2/1/1 4/3/1
f 6/6/2 5/4/2 7/1/2
f 1/4/7 5/6/7 2/8/7
f 3/6/4 2/9/4 7/7/4
f 3/13/5 7/4/5 4/11/5
f 5/9/6 1/6/6 8/12/6
